<?xml version="1.0" encoding="UTF-8" standalone="no"?>
<!-- Created with Inkscape (http://www.inkscape.org/) -->

<svg
   xmlns:dc="http://purl.org/dc/elements/1.1/"
   xmlns:cc="http://creativecommons.org/ns#"
   xmlns:rdf="http://www.w3.org/1999/02/22-rdf-syntax-ns#"
   xmlns:svg="http://www.w3.org/2000/svg"
   xmlns="http://www.w3.org/2000/svg"
   xmlns:sodipodi="http://sodipodi.sourceforge.net/DTD/sodipodi-0.dtd"
   xmlns:inkscape="http://www.inkscape.org/namespaces/inkscape"
   width="118.45087mm"
   height="23.485676mm"
   viewBox="0 0 419.70779 83.216961"
   id="svg4151"
   version="1.1"
   inkscape:version="0.92.1 r15371"
   sodipodi:docname="flashlogo.svg">
  <defs
     id="defs4153" />
  <sodipodi:namedview
     id="base"
     pagecolor="#000000"
     bordercolor="#666666"
     borderopacity="1.0"
     inkscape:pageopacity="0"
     inkscape:pageshadow="2"
     inkscape:zoom="1.4"
     inkscape:cx="55.425453"
     inkscape:cy="-10.295933"
     inkscape:document-units="px"
     inkscape:current-layer="layer1"
     showgrid="false"
     fit-margin-top="0"
     fit-margin-left="0"
     fit-margin-right="0"
     fit-margin-bottom="0"
     inkscape:window-width="1600"
     inkscape:window-height="1137"
     inkscape:window-x="-8"
     inkscape:window-y="-8"
     inkscape:window-maximized="1"
     showguides="true"
     inkscape:guide-bbox="true" />
  <metadata
     id="metadata4156">
    <rdf:RDF>
      <cc:Work
         rdf:about="">
        <dc:format>image/svg+xml</dc:format>
        <dc:type
           rdf:resource="http://purl.org/dc/dcmitype/StillImage" />
        <dc:title></dc:title>
      </cc:Work>
    </rdf:RDF>
  </metadata>
  <g
     inkscape:label="Ebene 1"
     inkscape:groupmode="layer"
     id="layer1"
     transform="translate(-5.8301658,-7.125737)">
    <path
       style="fill:none;fill-rule:evenodd;stroke:#0a0a0a;stroke-width:1;stroke-linecap:butt;stroke-linejoin:miter;stroke-miterlimit:4;stroke-dasharray:none;stroke-opacity:1"
       d="m 15.396456,10.126037 58.43401,0 c 0,18.44949 0,39.02808 0,58.43401 0,3.63756 -2.92843,6.56599 -6.56599,6.56599 l -58.4340102,0 c 0,-18.44949 0,-39.02808 0,-58.43401 0,-3.63756 2.9284302,-6.56599 6.5659902,-6.56599 z"
       id="rect3336"
       inkscape:connector-curvature="0"
       sodipodi:nodetypes="sccsccs" />
    <path
       style="fill:none;fill-rule:evenodd;stroke:#000000;stroke-width:6;stroke-linecap:round;stroke-linejoin:miter;stroke-miterlimit:4;stroke-dasharray:none;stroke-opacity:1"
       d="m 8.8304658,75.126037 c 0,-19.47801 0,-38.95601 0,-58.43401 0,-3.63756 2.9284302,-6.56599 6.5659902,-6.56599 l 58.43401,0"
       id="rect3336-0"
       inkscape:connector-curvature="0"
       sodipodi:nodetypes="ccsc" />
    <path
       style="fill:none;fill-rule:evenodd;stroke:#000000;stroke-width:7.16043139;stroke-linecap:round;stroke-linejoin:miter;stroke-miterlimit:4;stroke-dasharray:none;stroke-opacity:1"
       d="m 10.776166,40.993507 30.18511,0"
       id="path4160"
       inkscape:connector-curvature="0"
       sodipodi:nodetypes="cc" />
    <path
       inkscape:connector-curvature="0"
       id="path4139"
       style="font-style:normal;font-variant:normal;font-weight:normal;font-stretch:normal;font-size:60px;line-height:125%;font-family:Hanken;-inkscape-font-specification:Hanken;letter-spacing:0px;word-spacing:0px;fill:#000000;fill-opacity:1;stroke:none;stroke-width:1px;stroke-linecap:butt;stroke-linejoin:miter;stroke-opacity:1"
       d="m 81.994969,78.342696 q -1.08,0 -1.86,-0.78 -0.78,-0.78 -0.78,-1.86 l 0,-42.06 q 0,-1.08 0.78,-1.86 0.78,-0.78 1.86,-0.78 1.08,0 1.86,0.78 0.78,0.78 0.78,1.86 l 0,42.06 q 0,1.08 -0.78,1.86 -0.78,0.78 -1.86,0.78 z" />
    <path
       inkscape:connector-curvature="0"
       id="path4141"
       style="font-style:normal;font-variant:normal;font-weight:normal;font-stretch:normal;font-size:60px;line-height:125%;font-family:Hanken;-inkscape-font-specification:Hanken;letter-spacing:0px;word-spacing:0px;fill:#000000;fill-opacity:1;stroke:none;stroke-width:1px;stroke-linecap:butt;stroke-linejoin:miter;stroke-opacity:1"
       d="m 120.32653,78.342696 q -1.14,0 -1.92,-0.78 -0.78,-0.78 -0.78,-1.86 l 0,-1.14 q -2.1,1.8 -4.68,2.82 -2.58,0.96 -5.4,0.96 -3.18,0 -6,-1.2 -2.82,-1.26 -4.919998,-3.36 -2.1,-2.1 -3.36,-4.86 -1.2,-2.82 -1.2,-6 0,-3.18 1.2,-6 1.26,-2.82 3.36,-4.92 2.099998,-2.1 4.919998,-3.3 2.82,-1.26 6,-1.26 2.82,0 5.4,1.02 2.58,0.96 4.68,2.76 l 0,-1.14 q 0,-1.08 0.78,-1.86 0.78,-0.78 1.92,-0.78 1.08,0 1.86,0.78 0.78,0.78 0.78,1.86 l 0,25.62 q 0,1.08 -0.78,1.86 -0.78,0.78 -1.86,0.78 z m -12.78,-25.56 q -2.1,0 -3.96,0.84 -1.8,0.78 -3.18,2.16 -1.38,1.38 -2.22,3.24 -0.779998,1.8 -0.779998,3.9 0,2.1 0.779998,3.96 0.84,1.8 2.22,3.18 1.38,1.38 3.18,2.16 1.86,0.78 3.96,0.78 2.1,0 3.9,-0.78 1.86,-0.78 3.24,-2.16 1.38,-1.38 2.16,-3.18 0.78,-1.86 0.78,-3.96 0,-2.1 -0.78,-3.9 -0.78,-1.86 -2.16,-3.24 -1.38,-1.38 -3.24,-2.16 -1.8,-0.84 -3.9,-0.84 z" />
    <path
       inkscape:connector-curvature="0"
       id="path4145"
       style="font-style:normal;font-variant:normal;font-weight:normal;font-stretch:normal;font-size:60px;line-height:125%;font-family:Hanken;-inkscape-font-specification:Hanken;letter-spacing:0px;word-spacing:0px;fill:#000000;fill-opacity:1;stroke:none;stroke-width:1px;stroke-linecap:butt;stroke-linejoin:miter;stroke-opacity:1"
       d="m 180.13622,78.342696 q -1.14,0 -1.92,-0.78 -0.78,-0.78 -0.78,-1.86 l 0,-15.72 q 0,-1.5 -0.6,-2.76 -0.54,-1.32 -1.56,-2.28 -0.96,-1.02 -2.28,-1.56 -1.26,-0.6 -2.76,-0.6 -1.44,0 -2.76,0.6 -1.32,0.54 -2.28,1.56 -0.96,0.96 -1.56,2.28 -0.54,1.26 -0.54,2.76 0,0.24 -0.12,0.48 l 0,15.24 q 0,1.08 -0.78,1.86 -0.78,0.78 -1.86,0.78 -1.14,0 -1.92,-0.78 -0.78,-0.78 -0.78,-1.86 l 0,-42.06 q 0,-1.08 0.78,-1.86 0.78,-0.78 1.92,-0.78 1.08,0 1.86,0.78 0.78,0.78 0.78,1.86 l 0,16.14 q 1.56,-1.14 3.42,-1.74 1.92,-0.6 3.84,-0.6 2.58,0 4.86,1.02 2.28,0.96 3.96,2.7 1.74,1.68 2.7,3.96 1.02,2.28 1.02,4.86 l 0,15.72 q 0,1.08 -0.78,1.86 -0.78,0.78 -1.86,0.78 z" />
    <path
       inkscape:connector-curvature="0"
       id="path4147"
       style="font-style:normal;font-variant:normal;font-weight:normal;font-stretch:normal;font-size:60px;line-height:125%;font-family:Hanken;-inkscape-font-specification:Hanken;letter-spacing:0px;word-spacing:0px;fill:#000000;fill-opacity:1;stroke:none;stroke-width:1px;stroke-linecap:butt;stroke-linejoin:miter;stroke-opacity:1"
       d="m 224.41997,78.342696 q -2.76,0 -5.16,-1.02 -2.4,-1.08 -4.2,-2.88 -1.8,-1.8 -2.88,-4.2 -1.02,-2.4 -1.02,-5.16 0,-1.14 0.78,-1.92 0.78,-0.78 1.92,-0.78 1.08,0 1.86,0.78 0.78,0.78 0.78,1.92 0,1.62 0.6,3.06 0.66,1.44 1.74,2.52 1.08,1.08 2.52,1.74 1.44,0.6 3.06,0.6 1.62,0 3.06,-0.6 1.5,-0.66 2.58,-1.74 1.08,-1.08 1.68,-2.52 0.66,-1.44 0.66,-3.06 0,-1.98 -0.78,-3.24 -0.78,-1.32 -2.16,-2.28 -0.66,-0.48 -1.5,-0.84 -0.84,-0.42 -1.74,-0.84 -0.9,-0.36 -1.86,-0.72 -0.96,-0.36 -1.98,-0.72 -1.98,-0.72 -4.02,-1.62 -1.98,-0.9 -3.6,-2.22 -1.56,-1.38 -2.58,-3.36 -1.02,-2.04 -1.02,-4.98 0,-2.76 1.02,-5.16 1.08,-2.4 2.88,-4.2 1.8,-1.8 4.2,-2.82 2.4,-1.08 5.16,-1.08 2.76,0 5.16,1.08 2.46,1.02 4.26,2.82 1.8,1.8 2.82,4.2 1.08,2.4 1.08,5.16 0,1.08 -0.78,1.86 -0.78,0.78 -1.92,0.78 -1.08,0 -1.86,-0.78 -0.78,-0.78 -0.78,-1.86 0,-1.62 -0.66,-3.06 -0.6,-1.5 -1.68,-2.58 -1.08,-1.08 -2.58,-1.68 -1.44,-0.66 -3.06,-0.66 -1.62,0 -3.06,0.66 -1.44,0.6 -2.52,1.68 -1.08,1.08 -1.74,2.58 -0.6,1.44 -0.6,3.06 0,1.8 0.72,3 0.78,1.2 2.16,2.1 1.44,0.9 3.24,1.62 0.96,0.36 1.92,0.72 0.96,0.36 1.98,0.72 1.98,0.72 3.96,1.68 2.04,0.9 3.6,2.34 1.62,1.38 2.64,3.48 1.02,2.1 1.02,5.16 0,2.76 -1.08,5.16 -1.02,2.4 -2.82,4.2 -1.8,1.8 -4.26,2.88 -2.4,1.02 -5.16,1.02 z" />
    <path
       inkscape:connector-curvature="0"
       id="path4149"
       style="font-style:normal;font-variant:normal;font-weight:normal;font-stretch:normal;font-size:60px;line-height:125%;font-family:Hanken;-inkscape-font-specification:Hanken;letter-spacing:0px;word-spacing:0px;fill:#000000;fill-opacity:1;stroke:none;stroke-width:1px;stroke-linecap:butt;stroke-linejoin:miter;stroke-opacity:1"
       d="m 267.52716,51.102696 -10.02,24.84 -5.22,12.72 q -0.3,0.78 -0.96,1.2 -0.66,0.48 -1.5,0.48 -1.08,0 -1.86,-0.78 -0.78,-0.78 -0.78,-1.86 0,-0.54 0.18,-1.02 l 4.8,-11.76 -9.6,-23.82 q -0.18,-0.42 -0.18,-1.02 0,-1.08 0.78,-1.86 0.78,-0.78 1.86,-0.78 0.84,0 1.5,0.48 0.72,0.42 1.02,1.2 l 7.5,19.2 7.56,-19.2 q 0.3,-0.78 0.96,-1.2 0.66,-0.48 1.5,-0.48 1.14,0 1.92,0.78 0.78,0.78 0.78,1.86 0,0.6 -0.24,1.02 z" />
    <path
       inkscape:connector-curvature="0"
       id="path4153"
       style="font-style:normal;font-variant:normal;font-weight:normal;font-stretch:normal;font-size:60px;line-height:125%;font-family:Hanken;-inkscape-font-specification:Hanken;letter-spacing:0px;word-spacing:0px;fill:#000000;fill-opacity:1;stroke:none;stroke-width:1px;stroke-linecap:butt;stroke-linejoin:miter;stroke-opacity:1"
       d="m 312.47559,52.782696 -4.86,0 0,22.92 q 0,1.08 -0.78,1.86 -0.78,0.78 -1.92,0.78 -1.08,0 -1.86,-0.78 -0.78,-0.78 -0.78,-1.86 l 0,-22.92 -4.92,0 q -1.08,0 -1.86,-0.78 -0.78,-0.78 -0.78,-1.86 0,-1.14 0.78,-1.92 0.78,-0.78 1.86,-0.78 l 4.92,0 0,-8.82 q 0,-1.14 0.78,-1.86 0.78,-0.78 1.86,-0.78 1.14,0 1.92,0.78 0.78,0.72 0.78,1.86 l 0,8.82 4.86,0 q 1.14,0 1.92,0.78 0.78,0.78 0.78,1.92 0,1.08 -0.78,1.86 -0.78,0.78 -1.92,0.78 z" />
    <path
       inkscape:connector-curvature="0"
       id="path4155"
       style="font-style:normal;font-variant:normal;font-weight:normal;font-stretch:normal;font-size:60px;line-height:125%;font-family:Hanken;-inkscape-font-specification:Hanken;letter-spacing:0px;word-spacing:0px;fill:#000000;fill-opacity:1;stroke:none;stroke-width:1px;stroke-linecap:butt;stroke-linejoin:miter;stroke-opacity:1"
       d="m 346.90716,64.302696 -22.74,0 q 0.24,1.86 1.08,3.48 0.9,1.56 2.22,2.76 1.38,1.14 3.06,1.8 1.74,0.66 3.66,0.66 1.14,0 2.04,-0.18 0.96,-0.18 1.74,-0.54 0.84,-0.42 1.62,-0.96 0.84,-0.6 1.8,-1.32 0.36,-0.3 0.72,-0.48 0.42,-0.24 1.08,-0.24 1.14,0 1.92,0.78 0.78,0.78 0.78,1.86 0,0.66 -0.24,1.08 -0.24,0.42 -0.54,0.78 -0.96,1.08 -2.28,1.98 -1.26,0.84 -2.76,1.44 -1.44,0.54 -3,0.84 -1.5,0.3 -2.88,0.3 -3.18,0 -6,-1.2 -2.82,-1.26 -4.92,-3.36 -2.1,-2.1 -3.36,-4.86 -1.2,-2.82 -1.2,-6 0,-3.18 1.2,-6 1.26,-2.82 3.36,-4.92 2.1,-2.1 4.92,-3.3 2.82,-1.26 6,-1.26 3.06,0 5.76,1.02 2.7,1.02 4.8,2.94 2.1,1.86 3.36,4.5 1.26,2.58 1.44,5.7 0.06,1.2 -0.78,1.98 -0.78,0.72 -1.86,0.72 z m -12.72,-11.52 q -3.12,0 -5.64,1.74 -2.52,1.68 -3.72,4.44 l 18.66,0 q -1.14,-2.82 -3.72,-4.5 -2.52,-1.68 -5.58,-1.68 z" />
    <path
       inkscape:connector-curvature="0"
       id="path4157"
       style="font-style:normal;font-variant:normal;font-weight:normal;font-stretch:normal;font-size:60px;line-height:125%;font-family:Hanken;-inkscape-font-specification:Hanken;letter-spacing:0px;word-spacing:0px;fill:#000000;fill-opacity:1;stroke:none;stroke-width:1px;stroke-linecap:butt;stroke-linejoin:miter;stroke-opacity:1"
       d="m 362.07497,49.242696 q 2.82,-1.8 6.06,-1.8 2.52,0 4.74,1.08 2.22,1.02 3.78,2.88 1.56,-1.86 3.78,-2.88 2.22,-1.08 4.68,-1.08 2.34,0 4.32,0.9 2.04,0.84 3.54,2.4 1.56,1.5 2.4,3.54 0.9,2.04 0.9,4.32 l 0,17.1 q 0,1.08 -0.78,1.86 -0.78,0.78 -1.86,0.78 -1.08,0 -1.86,-0.78 -0.78,-0.78 -0.78,-1.86 l 0,-17.1 q 0,-1.2 -0.48,-2.22 -0.42,-1.08 -1.26,-1.86 -0.78,-0.84 -1.86,-1.26 -1.08,-0.48 -2.28,-0.48 -1.2,0 -2.28,0.48 -1.02,0.42 -1.86,1.26 -0.78,0.78 -1.26,1.86 -0.42,1.02 -0.42,2.22 l 0,17.1 q 0,1.08 -0.78,1.86 -0.78,0.78 -1.86,0.78 -1.14,0 -1.92,-0.78 -0.78,-0.78 -0.78,-1.86 l 0,-17.1 q 0,-1.2 -0.48,-2.22 -0.42,-1.08 -1.26,-1.86 -0.78,-0.84 -1.86,-1.26 -1.02,-0.48 -2.22,-0.48 -1.2,0 -2.28,0.48 -1.08,0.42 -1.86,1.26 -0.78,0.78 -1.26,1.86 -0.42,1.02 -0.42,2.22 0,0.18 -0.12,0.54 l 0,16.56 q 0,1.08 -0.78,1.86 -0.78,0.78 -1.86,0.78 -1.14,0 -1.92,-0.78 -0.78,-0.78 -0.78,-1.86 l 0,-25.98 q 0,-1.14 0.78,-1.92 0.78,-0.78 1.92,-0.78 2.16,0 2.52,2.22 z" />
    <path
       style="color:#000000;font-style:normal;font-variant:normal;font-weight:normal;font-stretch:normal;font-size:60px;line-height:125%;font-family:Hanken;-inkscape-font-specification:Hanken;text-indent:0;text-align:start;text-decoration:none;text-decoration-line:none;text-decoration-style:solid;text-decoration-color:#000000;letter-spacing:0px;word-spacing:0px;text-transform:none;direction:ltr;block-progression:tb;writing-mode:lr-tb;baseline-shift:baseline;text-anchor:start;white-space:normal;clip-rule:nonzero;display:inline;overflow:visible;visibility:visible;opacity:1;isolation:auto;mix-blend-mode:normal;color-interpolation:sRGB;color-interpolation-filters:linearRGB;solid-color:#000000;solid-opacity:1;fill:#000000;fill-opacity:1;fill-rule:nonzero;stroke:none;stroke-width:5;stroke-linecap:round;stroke-linejoin:miter;stroke-miterlimit:4;stroke-dasharray:none;stroke-dashoffset:0;stroke-opacity:1;color-rendering:auto;image-rendering:auto;shape-rendering:auto;text-rendering:auto;enable-background:accumulate"
       d="m 141.05859,47.552734 c -1.34563,0.04699 -2.66378,0.313861 -3.91601,0.78711 -1.21616,0.44055 -2.33843,1.071521 -3.3086,1.888672 -0.99958,0.841917 -1.80741,1.889941 -2.36328,3.068359 -0.58638,1.209778 -0.85027,2.562877 -0.80273,3.921875 0.049,1.402581 0.34918,2.740533 1.04883,3.910156 l 0.0234,0.04102 0.0254,0.03906 c 0.59723,0.918159 1.38235,1.692689 2.27149,2.31836 1.04665,0.889962 2.08016,1.142421 3.14648,1.373047 1.12733,0.243819 2.32211,0.383563 3.48829,0.509765 1.16617,0.126202 2.30097,0.236813 3.20117,0.371094 0.83684,0.124831 1.39957,0.316934 1.44726,0.324219 0.32014,0.232824 0.59962,0.50538 0.85157,0.880859 0.14589,0.253455 0.30672,0.7011 0.33398,1.480469 0.0226,0.64598 -0.0866,1.123723 -0.30664,1.574219 l -0.008,0.01758 -0.008,0.01758 c -0.25526,0.543815 -0.59039,0.980232 -1.06836,1.382812 -0.50589,0.426103 -1.0884,0.763067 -1.80078,1.019532 l -0.0195,0.0078 -0.0215,0.0078 c -0.74896,0.284591 -1.51235,0.438031 -2.33594,0.466797 -0.82357,0.02876 -1.56905,-0.07237 -2.2832,-0.296876 l -0.0469,-0.01562 -0.0469,-0.01172 c -0.75734,-0.205792 -1.33211,-0.49484 -1.79493,-0.84961 l -0.0234,-0.01758 -0.0234,-0.01758 c -0.50489,-0.368269 -0.86957,-0.780055 -1.16211,-1.304687 a 2.50025,2.50025 0 1 0 -4.36719,2.435546 c 0.63261,1.1345 1.51263,2.115784 2.5625,2.886719 1.01185,0.770182 2.18542,1.319726 3.45313,1.669922 1.25429,0.388059 2.57058,0.564221 3.90625,0.517578 1.34419,-0.04695 2.66298,-0.310892 3.91406,-0.783203 1.21811,-0.440624 2.33902,-1.07233 3.31055,-1.890625 1.00137,-0.843441 1.81122,-1.893202 2.36718,-3.074219 0.58451,-1.208438 0.84621,-2.559283 0.79883,-3.916015 -0.049,-1.402355 -0.34715,-2.742364 -1.04687,-3.91211 l -0.0234,-0.03906 -0.0273,-0.03906 c -0.63078,-0.969729 -1.44426,-1.809407 -2.39844,-2.449218 l -0.0996,-0.06836 -0.10547,-0.05664 c -1.10323,-0.594259 -2.08885,-0.728111 -3.1914,-0.892578 -1.10256,-0.164468 -2.27858,-0.275083 -3.4004,-0.396485 -1.12181,-0.121402 -2.19033,-0.257424 -2.96875,-0.425781 -0.77842,-0.168357 -1.23877,-0.501272 -0.98632,-0.267578 l -0.14258,-0.132813 -0.16211,-0.109375 c -0.36904,-0.247453 -0.67054,-0.562215 -0.95117,-0.980468 -0.14581,-0.253777 -0.30487,-0.702273 -0.33203,-1.480469 -0.0226,-0.645789 0.0846,-1.123648 0.30468,-1.574219 l 0.01,-0.01563 0.008,-0.01758 c 0.25525,-0.5438 0.58844,-0.98024 1.06641,-1.382813 0.5059,-0.426109 1.0884,-0.763068 1.80078,-1.019531 l 0.0215,-0.0078 0.0195,-0.0078 c 0.74895,-0.284591 1.51432,-0.438037 2.3379,-0.466797 0.82355,-0.02876 1.56709,0.07237 2.28124,0.296875 l 0.0469,0.01367 0.0488,0.01367 c 0.75733,0.205791 1.33015,0.492888 1.79297,0.847656 l 0.0234,0.01953 0.0254,0.01758 c 0.5049,0.368267 0.86761,0.780038 1.16016,1.304687 a 2.50025,2.50025 0 1 0 4.36719,-2.435547 c -0.63306,-1.135299 -1.51358,-2.119447 -2.56445,-2.890625 -1.00946,-0.767597 -2.18136,-1.316131 -3.44532,-1.666015 -1.25596,-0.389291 -2.57446,-0.566251 -3.91211,-0.519532 z"
       id="path4143-5"
       inkscape:connector-curvature="0" />
    <path
       style="color:#000000;font-style:normal;font-variant:normal;font-weight:normal;font-stretch:normal;font-size:60px;line-height:125%;font-family:Hanken;-inkscape-font-specification:Hanken;text-indent:0;text-align:start;text-decoration:none;text-decoration-line:none;text-decoration-style:solid;text-decoration-color:#000000;letter-spacing:0px;word-spacing:0px;text-transform:none;direction:ltr;block-progression:tb;writing-mode:lr-tb;baseline-shift:baseline;text-anchor:start;white-space:normal;clip-rule:nonzero;display:inline;overflow:visible;visibility:visible;opacity:1;isolation:auto;mix-blend-mode:normal;color-interpolation:sRGB;color-interpolation-filters:linearRGB;solid-color:#000000;solid-opacity:1;fill:#000000;fill-opacity:1;fill-rule:nonzero;stroke:none;stroke-width:5;stroke-linecap:round;stroke-linejoin:miter;stroke-miterlimit:4;stroke-dasharray:none;stroke-dashoffset:0;stroke-opacity:1;color-rendering:auto;image-rendering:auto;shape-rendering:auto;text-rendering:auto;enable-background:accumulate"
       d="m 281.76758,47.787109 c -1.34562,0.04699 -2.66378,0.313858 -3.91602,0.78711 -1.21615,0.440549 -2.33843,1.071521 -3.30859,1.888672 -0.99958,0.841916 -1.80741,1.889941 -2.36328,3.068359 -0.58645,1.209906 -0.85013,2.563168 -0.80274,3.921875 0.049,1.402539 0.34724,2.740527 1.04688,3.910156 l 0.0254,0.04102 0.0254,0.03906 c 0.59748,0.918536 1.38185,1.694524 2.27148,2.320313 1.04638,0.889398 2.07847,1.142479 3.14453,1.373047 1.12734,0.243819 2.32211,0.383563 3.48829,0.509765 1.16617,0.126203 2.30293,0.23486 3.20312,0.369141 0.83809,0.125016 1.40136,0.319508 1.44727,0.326172 0.31973,0.232699 0.59985,0.505729 0.85156,0.880859 0.14583,0.253833 0.30684,0.700409 0.33398,1.478516 0.0226,0.645964 -0.0866,1.123709 -0.30664,1.574219 l -0.008,0.01758 -0.008,0.01758 c -0.25527,0.543815 -0.59039,0.980228 -1.06836,1.382812 -0.50589,0.426103 -1.08841,0.763069 -1.80078,1.019532 l -0.0195,0.0078 -0.0215,0.0078 c -0.74897,0.284596 -1.51239,0.43804 -2.33594,0.466796 -0.82356,0.02876 -1.56904,-0.07237 -2.2832,-0.296874 l -0.0469,-0.01563 -0.0469,-0.01172 c -0.75733,-0.205791 -1.3321,-0.492887 -1.79492,-0.847656 l -0.0234,-0.01953 -0.0234,-0.01758 c -0.50489,-0.368268 -0.86956,-0.780041 -1.16211,-1.304687 a 2.50025,2.50025 0 1 0 -4.36718,2.435547 c 0.6319,1.13325 1.51218,2.114191 2.56054,2.884765 1.01231,0.770996 2.18651,1.321442 3.45508,1.671875 1.25429,0.388058 2.57058,0.566175 3.90625,0.519531 1.345,-0.04696 2.66432,-0.314294 3.91602,-0.787109 1.21614,-0.440548 2.33842,-1.071523 3.30859,-1.888672 0.99956,-0.841914 1.80741,-1.889957 2.36328,-3.068359 0.5864,-1.209839 0.85019,-2.563043 0.80274,-3.921875 -0.0489,-1.40265 -0.34728,-2.740587 -1.04688,-3.910156 l -0.0254,-0.04102 -0.0254,-0.03906 c -0.63077,-0.969713 -1.44426,-1.809407 -2.39844,-2.449218 l -0.0996,-0.06641 -0.10546,-0.05859 c -1.10324,-0.594259 -2.08885,-0.728111 -3.19141,-0.892579 -1.10256,-0.164467 -2.27857,-0.273129 -3.40039,-0.394531 -1.12182,-0.121402 -2.19033,-0.259377 -2.96875,-0.427734 -0.77842,-0.168357 -1.23877,-0.501272 -0.98633,-0.267578 l -0.14258,-0.132813 -0.16211,-0.107422 c -0.36905,-0.247461 -0.6705,-0.564125 -0.95117,-0.982422 -0.1458,-0.25378 -0.30485,-0.700305 -0.33203,-1.478515 -0.0225,-0.646088 0.0847,-1.123778 0.30469,-1.574219 l 0.008,-0.01758 0.01,-0.01758 c 0.25525,-0.543799 0.58844,-0.980237 1.0664,-1.382813 0.5059,-0.426109 1.08841,-0.763069 1.80078,-1.019531 l 0.0215,-0.0078 0.0195,-0.0078 c 0.74894,-0.284589 1.51433,-0.438037 2.33789,-0.466797 0.82359,-0.02876 1.56711,0.07237 2.28125,0.296875 l 0.0469,0.01367 0.0488,0.01367 c 0.75734,0.205791 1.33016,0.492887 1.79297,0.847656 l 0.0234,0.01953 0.0254,0.01758 c 0.50489,0.368259 0.86759,0.780025 1.16016,1.304687 a 2.50025,2.50025 0 1 0 4.36718,-2.435547 c -0.63215,-1.133665 -1.51164,-2.116017 -2.56054,-2.886719 -1.01186,-0.770193 -2.18736,-1.319726 -3.45508,-1.669921 -1.25432,-0.388072 -2.5706,-0.566169 -3.90625,-0.519532 z"
       id="path4143-5-0"
       inkscape:connector-curvature="0" />
    <path
       style="color:#000000;font-style:normal;font-variant:normal;font-weight:normal;font-stretch:normal;font-size:60px;line-height:125%;font-family:Hanken;-inkscape-font-specification:Hanken;text-indent:0;text-align:start;text-decoration:none;text-decoration-line:none;text-decoration-style:solid;text-decoration-color:#000000;letter-spacing:0px;word-spacing:0px;text-transform:none;direction:ltr;block-progression:tb;writing-mode:lr-tb;baseline-shift:baseline;text-anchor:start;white-space:normal;clip-rule:nonzero;display:inline;overflow:visible;visibility:visible;opacity:1;isolation:auto;mix-blend-mode:normal;color-interpolation:sRGB;color-interpolation-filters:linearRGB;solid-color:#000000;solid-opacity:1;fill:#000000;fill-opacity:1;fill-rule:nonzero;stroke:none;stroke-width:5;stroke-linecap:round;stroke-linejoin:miter;stroke-miterlimit:4;stroke-dasharray:none;stroke-dashoffset:0;stroke-opacity:1;color-rendering:auto;image-rendering:auto;shape-rendering:auto;text-rendering:auto;enable-background:accumulate"
       d="m 413.08984,47.609375 c -1.34562,0.04699 -2.66572,0.313855 -3.91796,0.787109 -1.21615,0.440549 -2.33649,1.069572 -3.30665,1.886719 -0.99958,0.841918 -1.80741,1.891892 -2.36328,3.070313 -0.58644,1.209905 -0.85013,2.561215 -0.80273,3.919922 0.049,1.402539 0.34724,2.74248 1.04687,3.912109 l 0.0254,0.04102 0.0254,0.03906 c 0.59848,0.920078 1.38383,1.696017 2.27539,2.322266 1.04502,0.886562 2.0759,1.138862 3.14062,1.36914 1.12733,0.243819 2.32211,0.383564 3.48828,0.509766 1.16617,0.126202 2.30098,0.236813 3.20117,0.371094 0.83685,0.12483 1.39958,0.316933 1.44727,0.324218 0.3202,0.232852 0.60152,0.505303 0.85351,0.88086 0.14584,0.253828 0.30489,0.702343 0.33204,1.480469 0.0225,0.645964 -0.0847,1.123708 -0.30469,1.574218 l -0.008,0.01758 -0.01,0.01758 c -0.25526,0.543816 -0.58844,0.980234 -1.06641,1.382813 -0.50589,0.426103 -1.0884,0.761115 -1.80078,1.017578 l -0.0215,0.0078 -0.0195,0.0078 c -0.74897,0.284596 -1.51434,0.439994 -2.33789,0.46875 -0.82357,0.02876 -1.5671,-0.07237 -2.28125,-0.296875 l -0.0469,-0.01563 -0.0488,-0.01367 c -0.75733,-0.20579 -1.33015,-0.492887 -1.79296,-0.847656 l -0.0234,-0.01758 -0.0254,-0.01758 c -0.50489,-0.368263 -0.86761,-0.780042 -1.16016,-1.304688 a 2.50025,2.50025 0 1 0 -4.36719,2.435547 c 0.63305,1.135297 1.51356,2.117486 2.56446,2.888672 1.01106,0.768822 2.18489,1.318171 3.45117,1.667969 1.25429,0.38806 2.57058,0.564221 3.90625,0.517578 1.34563,-0.04699 2.66378,-0.313864 3.91601,-0.78711 1.21614,-0.440547 2.33843,-1.069564 3.3086,-1.886718 0.99885,-0.841318 1.80548,-1.889024 2.36133,-3.066406 0.58773,-1.21083 0.85219,-2.563536 0.80468,-3.923829 -0.0489,-1.40265 -0.34727,-2.74254 -1.04687,-3.912109 l -0.0254,-0.03906 -0.0254,-0.04102 c -0.63078,-0.969714 -1.44426,-1.807455 -2.39844,-2.447266 l -0.0996,-0.06836 -0.10742,-0.05664 c -1.10324,-0.594258 -2.0869,-0.72811 -3.18946,-0.892578 -1.10255,-0.164467 -2.27857,-0.275082 -3.40039,-0.396484 -1.12181,-0.121402 -2.19228,-0.257425 -2.9707,-0.425782 -0.77842,-0.168356 -1.23682,-0.501272 -0.98437,-0.267578 l -0.14258,-0.132812 -0.16406,-0.109375 c -0.36902,-0.247441 -0.66858,-0.562226 -0.94922,-0.980469 -0.14581,-0.253774 -0.30681,-0.702228 -0.33399,-1.480469 -0.0225,-0.646088 0.0866,-1.123777 0.30664,-1.574218 l 0.008,-0.01758 0.008,-0.01758 c 0.25525,-0.543798 0.59039,-0.980236 1.06836,-1.382812 0.5059,-0.426109 1.0884,-0.761117 1.80078,-1.017578 l 0.0195,-0.0078 0.0215,-0.0078 c 0.74895,-0.28459 1.51238,-0.43999 2.33594,-0.46875 0.82359,-0.02876 1.56907,0.07433 2.28321,0.298828 l 0.0469,0.01367 0.0469,0.01367 c 0.75734,0.20579 1.33211,0.492887 1.79493,0.847656 l 0.0234,0.01758 0.0234,0.01758 c 0.50489,0.36826 0.86955,0.780025 1.16211,1.304688 a 2.50025,2.50025 0 1 0 4.36719,-2.433594 c -0.6326,-1.134476 -1.5126,-2.117728 -2.5625,-2.888672 -1.01185,-0.770185 -2.18541,-1.319727 -3.45313,-1.669922 -1.25431,-0.388071 -2.5706,-0.564215 -3.90625,-0.517578 z"
       id="path4143-5-8"
       inkscape:connector-curvature="0" />
  </g>
</svg>
